<?xml version="1.0" encoding="UTF-8"?>
<svg version="1.1" xmlns="http://www.w3.org/2000/svg" width="512" height="512">
<path d="M0 0 C3 1 3 1 4.53515625 3.66015625 C5.29119141 5.34431641 5.29119141 5.34431641 6.0625 7.0625 C6.56910156 8.16722656 7.07570313 9.27195312 7.59765625 10.41015625 C14.41342563 27.85776643 11.91768087 47.31903738 4.6875 64.1875 C2.2268294 69.73355398 -0.55124623 74.9329317 -3.93359375 79.984375 C-5.31176772 82.20921801 -5.31176772 82.20921801 -5 86 C-2.70160724 86.45624584 -2.70160724 86.45624584 0 86 C1.81909584 84.22112227 3.23417617 82.57569437 4.75 80.5625 C17.83636164 64.22174874 37.15605563 41.91716302 59 38 C62.52507399 37.6481692 65.83456842 37.39962616 69.0625 39.0625 C70.6024567 42.24507719 70.0352511 44.77001657 69 48 C65.07611657 57.33973775 58.67049364 64.55497036 52 72 C51.11170238 73.01147574 50.22367468 74.02318859 49.3359375 75.03515625 C35.24407864 90.81055577 19.06637939 105.83284642 0.125 115.53515625 C-2.15081333 116.81938714 -2.15081333 116.81938714 -2.875 119.12109375 C-2.91625 119.74113281 -2.9575 120.36117187 -3 121 C-1.96942957 122.23719827 -1.96942957 122.23719827 0.23046875 122.26171875 C3.69624212 121.93420561 5.41986588 120.7313761 8.3125 118.8125 C22.60720705 110.07979792 40.97662198 106.31589873 57.4375 110 C58.613125 110.33 59.78875 110.66 61 111 C59.45466781 119.43416242 50.94976114 124.98480154 44.43359375 129.703125 C33.98091512 136.84451711 22.73572575 142.32404677 11 147 C11.33 148.65 11.66 150.3 12 152 C12.63164062 151.9278125 13.26328125 151.855625 13.9140625 151.78125 C25.10616852 150.62010932 36.0301431 150.16906919 47 153 C33.77322723 167.99034247 13.67862665 170.06165195 -5 172 C-5.33 173.32 -5.66 174.64 -6 176 C-5.14341797 176.49306641 -5.14341797 176.49306641 -4.26953125 176.99609375 C0.8777275 180.01570977 5.88883344 183.19374977 10.8125 186.5625 C11.87082031 187.28566406 12.92914063 188.00882813 14.01953125 188.75390625 C16.9983216 190.99873515 19.43762796 193.30500982 22 196 C20.99076876 198.67049389 20.26488379 199.83243014 17.8203125 201.37890625 C4.22986857 207.3468838 -8.32688408 208.57952533 -23 209 C-23 210.65 -23 212.3 -23 214 C-22.17757812 214.4125 -21.35515625 214.825 -20.5078125 215.25 C-1.22323413 225.22631768 -1.22323413 225.22631768 2 233 C-9.03029218 235.03412633 -19.52933591 236.32380574 -30.75390625 236.0078125 C-33.88877643 235.75715282 -33.88877643 235.75715282 -36 237 C-35.70223778 240.22575735 -35.42807797 241.62030632 -32.9609375 243.80859375 C-31.68089844 244.61490234 -31.68089844 244.61490234 -30.375 245.4375 C-23.13796513 250.22428163 -17.92508919 254.14982161 -14 262 C-24.91544323 267.45772161 -35.35873022 265.74763479 -47 264 C-47.5534764 266.07553648 -48 267.84365964 -48 270 C-46.97132813 270.36738281 -46.97132813 270.36738281 -45.921875 270.7421875 C-42.47935974 272.22412589 -39.38901632 274.09848673 -36.25 276.125 C-35.63817871 276.5180835 -35.02635742 276.91116699 -34.39599609 277.31616211 C-29.1647347 280.75025205 -24.49197802 284.63874092 -20 289 C-20.33 289.99 -20.66 290.98 -21 292 C-23.33718002 293.03772024 -25.50172132 293.83376997 -27.9375 294.5625 C-28.65405762 294.77793457 -29.37061523 294.99336914 -30.10888672 295.21533203 C-47.69727351 300.20956532 -66.04212099 299.61608608 -84 297 C-85.64485066 296.93943849 -87.29172957 296.91218045 -88.9375 296.9375 C-90.09572266 296.95103516 -90.09572266 296.95103516 -91.27734375 296.96484375 C-91.84582031 296.97644531 -92.41429687 296.98804688 -93 297 C-92.37214289 302.80261486 -89.3883022 304.8968052 -85.11328125 308.54296875 C-65.74653537 323.82738928 -43.59509212 334.00480812 -18.9765625 336.640625 C-16 337 -16 337 -13 338 C-15.06749805 347.92399063 -21.8861055 355.19726075 -30 361 C-40.30815574 366.49490083 -50.1747415 368.14776697 -61.6875 368.25 C-62.49582275 368.25942627 -63.30414551 368.26885254 -64.13696289 368.27856445 C-72.25543968 368.2343289 -77.95731753 366.68071605 -84.0625 361.125 C-85.20426174 360.1209057 -86.34619455 359.11700591 -87.48828125 358.11328125 C-88.06916504 357.59588379 -88.65004883 357.07848633 -89.24853516 356.54541016 C-90.93104386 355.06084365 -92.63576542 353.60918169 -94.35546875 352.16796875 C-109.3500663 339.58681835 -123.63943229 326.62105945 -135.125 310.6875 C-144.82231137 297.72203397 -159.88399932 291.65467436 -175.48730469 289.29736328 C-195.42802259 286.93749208 -214.04607188 289.69738126 -231 301 C-236.86508735 300.75962757 -239.68618583 296.8075894 -243.515625 292.796875 C-260.43333435 273.7511519 -268.3116728 250.29301136 -267 225 C-264.40630119 202.20400493 -252.52077714 185.22213865 -237 169 C-228.98461234 160.58087063 -221.34917497 152.0592565 -214.34277344 142.77539062 C-212.99352967 140.99144504 -211.62610396 139.22248415 -210.2578125 137.453125 C-192.42055843 114.13915258 -192.42055843 114.13915258 -183 87 C-183.75607621 82.85701096 -185.38601943 79.68414978 -188.1875 76.5625 C-194.59732168 73.00148795 -199.94725203 74.08579415 -206.76953125 75.51953125 C-213.13147574 76.46574548 -219.58438515 76.14489469 -226 76 C-226.29132813 75.23816406 -226.58265625 74.47632812 -226.8828125 73.69140625 C-231.22722561 62.74840342 -236.92391297 51.53804352 -248 46 C-247.36812013 40.52370776 -243.40313205 37.18415841 -239.421875 33.82421875 C-224.29867767 22.04633601 -208.27786072 15.7951337 -189 17 C-174.86437003 18.80970263 -161.79888748 22.2234924 -151 32 C-150.39800781 32.49886719 -149.79601562 32.99773438 -149.17578125 33.51171875 C-137.79155408 43.66798434 -132.72903148 59.29515282 -131 74 C-129.35169845 103.38414502 -140.66247454 130.38018881 -159.69482422 152.546875 C-161.58188392 154.64784383 -163.58835791 156.60732359 -165.625 158.5625 C-173.96196069 166.61609351 -184.90568066 180.34642506 -185.625 192.25 C-184.763476 197.41914401 -183.44649395 201.79505861 -179.45703125 205.390625 C-175.23622204 208.13366806 -170.96559661 208.99311932 -166 208 C-147.04396815 201.81160472 -134.11080137 182.66897492 -124.61157227 166.35620117 C-116.09894718 152.28571489 -103.91916043 142.97510046 -90.3125 134.1875 C-87.6372532 132.43803999 -84.9677145 130.6800722 -82.30078125 128.91796875 C-81.66523819 128.49927017 -81.02969513 128.08057159 -80.37489319 127.64918518 C-74.99355054 124.07074808 -69.95219466 120.15204292 -65 116 C-64.28118652 115.41541016 -63.56237305 114.83082031 -62.82177734 114.22851562 C-57.04651075 109.50533828 -52.56157856 103.87157036 -48 98 C-47.25621094 97.06027344 -46.51242187 96.12054688 -45.74609375 95.15234375 C-39.80264625 87.47237593 -34.77699375 79.43415193 -30 71 C-29.63406738 70.35998047 -29.26813477 69.71996094 -28.89111328 69.06054688 C-16.55077099 47.289241 -8.42154658 23.481765 0 0 Z " fill="#B28EFC" transform="translate(357,8)"/>
<path d="M0 0 C16.45945466 14.37233735 28.09612434 32.34271868 37.93359375 51.67114258 C43.45506761 62.49804112 49.64327838 72.33165355 57 82 C57.46937988 82.61955566 57.93875977 83.23911133 58.42236328 83.87744141 C64.16484388 91.41407007 70.20344751 98.68615573 76.359375 105.88671875 C79.62598773 109.71649934 82.78093446 113.63553804 85.9296875 117.5625 C88.02471708 120.11616785 88.02471708 120.11616785 90.7578125 122.625 C93 125 93 125 93 128 C90.84765625 129.5703125 90.84765625 129.5703125 88.0625 131.125 C84.83826582 132.79932205 84.83826582 132.79932205 82 135 C75.97327007 134.56376676 70.78808835 133.09213728 65.125 131.0625 C53.05107928 126.90747716 42.89700756 125.38773928 30.14038086 126.48266602 C23.31088418 127.01792576 16.49276867 127.25252629 9.6452961 127.41499138 C7.50217868 127.46638395 5.35924651 127.52288313 3.21629333 127.58070374 C-2.86644905 127.74429404 -8.94932158 127.90183432 -15.0324707 128.04956055 C-18.78242878 128.14098383 -22.53210434 128.24050622 -26.28172493 128.34482002 C-27.69073903 128.38248577 -29.099835 128.41722917 -30.50900078 128.4487133 C-43.24284097 128.73454854 -55.45911967 129.9915375 -67.6875 133.625 C-74.61413254 135.57805814 -80.7703926 136.5716559 -88 136 C-92.56556655 127.77784847 -94.86412368 118.9679193 -97.46875 109.97265625 C-99.63120985 102.73673291 -102.16589115 96.15141219 -105.75244141 89.49707031 C-112.01188916 76.96837529 -106.71825434 59.00620161 -102.8125 46.3125 C-98.42217537 33.95406379 -91.64397135 23.83624327 -83 14 C-82.31421875 13.16984375 -81.6284375 12.3396875 -80.921875 11.484375 C-70.0522864 -1.31758491 -55.72336407 -12.44409486 -38.67578125 -14.8125 C-23.74373238 -15.85883335 -11.29887907 -9.31929985 0 0 Z " fill="#CC99FC" transform="translate(205,368)"/>
<path d="M0 0 C4.15780262 3.56383082 7.38424668 7.90071802 10.7421875 12.20703125 C16.26552264 19.03953061 22.21079268 25.36942026 28.4375 31.5625 C29.14970703 32.27857422 29.86191406 32.99464844 30.59570312 33.73242188 C35.23344243 38.36173659 40.02614559 42.73624815 45 47 C46.22612066 48.06932692 47.4513975 49.13962225 48.67578125 50.2109375 C49.88766127 51.26603813 51.0999071 52.32071874 52.3125 53.375 C52.95912598 53.93807861 53.60575195 54.50115723 54.27197266 55.08129883 C58.07192793 58.37606589 61.93123748 61.56466133 65.875 64.6875 C71.18096701 69.00104019 75.56926637 73.80887644 80 79 C80.93322499 80.0509652 81.86821027 81.10036921 82.8046875 82.1484375 C90.59551084 90.9394946 97.56949295 100.17047884 104 110 C104.65331299 110.98734131 104.65331299 110.98734131 105.31982422 111.99462891 C111.99158876 122.30367223 116.1641142 133.32165337 120.125 144.875 C120.49469406 145.95190598 120.49469406 145.95190598 120.87185669 147.05056763 C125 159.17992755 125 159.17992755 125 164 C120.94115946 165.82077574 116.87733838 167.63015864 112.8125 169.4375 C111.66201172 169.95376953 110.51152344 170.47003906 109.32617188 171.00195312 C107.65844727 171.74155273 107.65844727 171.74155273 105.95703125 172.49609375 C104.93585205 172.95169678 103.91467285 173.4072998 102.86254883 173.87670898 C100.19963413 174.9216617 97.83879361 175.66607869 95 176 C93.078125 174.734375 93.078125 174.734375 91.25 172.75 C90.21552734 171.63431641 90.21552734 171.63431641 89.16015625 170.49609375 C86.16671051 167.03712119 83.25628377 163.52178402 80.39453125 159.953125 C78.3766124 157.46446815 76.31082994 155.03081444 74.21191406 152.6105957 C66.30848918 143.4587299 59.10034244 133.7820686 52 124 C51.51080078 123.32678711 51.02160156 122.65357422 50.51757812 121.95996094 C44.72849359 113.89809358 40.20372704 105.5637314 35.89160156 96.63305664 C22.83925127 70.05857301 2.63039356 45.06318078 -25.37890625 33.875 C-38.70361827 29.42681 -51.56112582 32.47827359 -64 38.125 C-76.33472439 44.68219546 -87.3336981 54.87192913 -96.0625 65.6875 C-96.701875 66.450625 -97.34125 67.21375 -98 68 C-98.66 68 -99.32 68 -100 68 C-100.6509259 66.75264433 -101.29551669 65.50198168 -101.9375 64.25 C-102.47697266 63.20585937 -102.47697266 63.20585937 -103.02734375 62.140625 C-108.05264216 51.08093211 -104.69170247 37.90177808 -100.96875 26.97265625 C-95.20896627 11.85322396 -84.73858171 0.04282198 -70.0234375 -6.78515625 C-47.64319218 -15.77773544 -19.93213329 -14.08931871 0 0 Z " fill="#B991FC" transform="translate(210,315)"/>
<path d="M0 0 C6.6371851 0.55214018 10.59380318 5.43139528 15 10 C19.3807332 15.24775331 23.94452194 21.95428676 24 29 C22.27873203 32.61407124 19.80912521 35.18562409 17 38 C16.44441406 38.6290625 15.88882813 39.258125 15.31640625 39.90625 C9.07137913 46.73534441 1.46282681 51.4200184 -7.7265625 52.8984375 C-10.82531648 53.03686981 -13.21550523 52.31897121 -16 51 C-14.56621326 47.9689897 -12.87591617 45.14176798 -11.13061523 42.28149414 C-4.55314903 31.31103223 -2.35492186 22.13724429 -3.96875 9.34765625 C-4.00418783 5.55137845 -3.24998647 3.99446728 -1 1 C-0.67 0.67 -0.34 0.34 0 0 Z " fill="#EAA6FD" transform="translate(101,58)"/>
</svg>
