<?xml version="1.0" encoding="UTF-8"?>
<svg version="1.1" xmlns="http://www.w3.org/2000/svg" width="512" height="512">
<path d="M0 0 C19.05770172 13.08926241 26.1945248 25.4450174 34.9375 46.515625 C35.32325195 47.43633789 35.70900391 48.35705078 36.10644531 49.30566406 C36.85501679 51.09451577 37.59576415 52.88666988 38.32714844 54.68261719 C41.69468935 62.71338279 46.19852033 69.55217107 51.82421875 76.19140625 C57.60288781 83.38706696 60.12503763 88.36710415 60.23046875 97.7109375 C59.69921875 100.12890625 59.69921875 100.12890625 58.10546875 102.015625 C54.58523976 103.64430237 52.43591623 103.03644629 48.69921875 102.12890625 C46.2040476 101.08155046 43.89359697 100.0093775 41.51171875 98.75390625 C40.82883789 98.40448975 40.14595703 98.05507324 39.44238281 97.69506836 C33.01663616 94.37481098 26.72662761 90.80952495 20.41870117 87.27246094 C14.51591094 84.00835949 8.51221363 81.18153455 2.32421875 78.50390625 C-9.72081914 73.24081154 -19.81860015 66.61756405 -29.74633789 58.02856445 C-37.5344121 51.02594163 -37.5344121 51.02594163 -47.11328125 47.50390625 C-50.88788753 48.24402513 -52.05098071 49.04584625 -54.30078125 52.12890625 C-58.46281903 60.25765151 -57.30771463 72.80858836 -54.98828125 81.44140625 C-48.63430852 99.08641065 -37.94274183 114.8460042 -27.30078125 130.12890625 C-26.7082959 130.98403809 -26.11581055 131.83916992 -25.50537109 132.72021484 C-21.46702366 138.5443087 -17.39065261 144.34092222 -13.30078125 150.12890625 C-12.25894844 151.60665371 -11.21727675 153.08451479 -10.17578125 154.5625 C-6.25389903 160.12462644 -2.33181381 165.68642269 1.62109375 171.2265625 C36.70557934 220.47866374 66.92814452 272.89676362 57.10717773 335.58618164 C53.53720034 356.31745112 47.43393712 374.8275991 33.69921875 391.12890625 C32.97476562 392.02738281 32.2503125 392.92585938 31.50390625 393.8515625 C5.75699836 424.18054721 -34.26435838 435.24527866 -71.86328125 442.12890625 C-72.80786194 442.30287933 -73.75244263 442.47685242 -74.72564697 442.65609741 C-91.19840384 445.67892856 -107.64642659 448.30716494 -124.30078125 450.12890625 C-126.1737085 450.35102783 -126.1737085 450.35102783 -128.08447266 450.57763672 C-172.88260715 455.75715967 -220.5478198 455.63199351 -265.30078125 450.12890625 C-266.52345703 449.98437012 -267.74613281 449.83983398 -269.00585938 449.69091797 C-300.22461241 445.89165463 -330.98564741 438.00146175 -359.30078125 424.12890625 C-360.14237793 423.71769531 -360.98397461 423.30648438 -361.85107422 422.8828125 C-374.02031374 416.87066851 -385.41777544 410.24489916 -396.30078125 402.12890625 C-397.20666992 401.45625732 -397.20666992 401.45625732 -398.13085938 400.77001953 C-420.32056837 384.15167491 -443.29709874 363.13995378 -452.30078125 336.12890625 C-452.49343547 334.3014434 -452.61160358 332.46537496 -452.67578125 330.62890625 C-452.72476562 329.66984375 -452.77375 328.71078125 -452.82421875 327.72265625 C-452.30078125 325.12890625 -452.30078125 325.12890625 -450.14160156 323.45898438 C-441.69116045 319.50246984 -429.54772091 323.98605607 -420.92578125 326.12890625 C-399.06525494 331.44972322 -379.14812818 331.95277269 -358.30078125 322.12890625 C-357.64078125 321.46890625 -356.98078125 320.80890625 -356.30078125 320.12890625 C-357.20828125 319.57203125 -358.11578125 319.01515625 -359.05078125 318.44140625 C-362.98737502 315.64036838 -365.49683392 313.13877457 -367.30078125 308.62890625 C-367.30078125 304.99338057 -365.82020055 303.64832555 -363.30078125 301.12890625 C-357.76324626 297.3099166 -350.14165238 298.00425624 -343.67578125 298.1015625 C-341.99308721 298.1159374 -340.3103883 298.12975096 -338.62768555 298.14306641 C-337.32146744 298.15554413 -337.32146744 298.15554413 -335.98886108 298.16827393 C-316.49647989 298.336016 -297.49301512 297.82626368 -278.30078125 294.12890625 C-278.86547119 294.1446167 -279.43016113 294.16032715 -280.01196289 294.17651367 C-316.56913734 295.04024115 -361.9527277 294.0000566 -390.578125 267.9609375 C-394.9814565 263.2780294 -398.02640778 258.1470144 -398.61328125 251.69140625 C-398.30078125 248.12890625 -398.30078125 248.12890625 -396.98828125 245.69140625 C-388.76054229 240.90783709 -375.86105794 245.11042315 -366.86328125 246.62890625 C-364.69624061 246.98835082 -362.52882912 247.345268 -360.36082458 247.69885254 C-358.41233394 248.0175495 -356.46503767 248.34352383 -354.51782227 248.66992188 C-351.18240096 249.22306795 -351.18240096 249.22306795 -347.30078125 249.12890625 C-348.19796875 248.86078125 -349.09515625 248.59265625 -350.01953125 248.31640625 C-368.58256173 242.4866942 -385.18086522 233.66049244 -399.30078125 220.12890625 C-400.01234375 219.48050781 -400.72390625 218.83210937 -401.45703125 218.1640625 C-410.11741758 210.01996843 -418.12707184 198.23738028 -419.67578125 186.21875 C-419.73222469 183.76698806 -419.75674558 181.53831778 -419.30078125 179.12890625 C-418.64078125 178.46890625 -417.98078125 177.80890625 -417.30078125 177.12890625 C-413.29891002 177.50278349 -410.03793804 179.06943413 -406.42578125 180.75390625 C-373.68323418 195.24448734 -336.30001365 200.77840375 -301.30078125 207.12890625 C-302.37529541 206.59491211 -303.44980957 206.06091797 -304.55688477 205.51074219 C-305.9936829 204.79498321 -307.43044876 204.07915944 -308.8671875 203.36328125 C-309.57218384 203.01313965 -310.27718018 202.66299805 -311.00354004 202.30224609 C-333.08107774 191.29208332 -354.77142049 177.50858484 -369.30078125 157.12890625 C-369.9040625 156.29101562 -370.50734375 155.453125 -371.12890625 154.58984375 C-377.3526886 145.41652977 -383.37642226 134.47752322 -382.30078125 123.12890625 C-379.30078125 121.12890625 -379.30078125 121.12890625 -375.61328125 121.50390625 C-362.70248476 124.76846327 -350.85943311 133.00939382 -339.99609375 140.3671875 C-310.55894817 160.24995962 -281.29132233 175.50851612 -246.05078125 181.53125 C-244.78910126 181.74769165 -243.52742126 181.9641333 -242.22750854 182.18713379 C-227.09440857 184.74942907 -211.87452724 186.6748622 -196.65039062 188.60839844 C-174.92051773 191.38230505 -153.73478392 194.74299005 -133.05078125 202.12890625 C-124.74821452 205.02029503 -116.47794525 207.75020772 -107.92578125 209.81640625 C-89.55711839 214.35657397 -71.49377281 223.60710311 -57.30078125 236.12890625 C-56.48351562 236.82628906 -55.66625 237.52367187 -54.82421875 238.2421875 C-33.48077991 256.84335788 -17.63405182 282.07996592 -12.30078125 310.12890625 C-10.9918163 259.30079052 -27.75317959 221.21775726 -51.98046875 177.19140625 C-107.91357297 75.38289361 -107.91357297 75.38289361 -96.30078125 31.3359375 C-91.13963752 14.03960777 -80.44636835 -2.04877142 -64.30078125 -10.87109375 C-42.68440203 -21.50470173 -18.57058883 -12.51789197 0 0 Z " fill="#EBEFF0" transform="translate(452.30078125,37.87109375)"/>
<path d="M0 0 C3.31578076 2.66879915 3.89008359 4.31607564 4.5625 8.5 C3.83259085 13.04165692 2.49641436 14.04564568 -1 17 C-3.8764475 18.68092999 -6.86074743 20.02817931 -9.9140625 21.35546875 C-10.78890289 21.74163864 -11.66374329 22.12780853 -12.56509399 22.52568054 C-22.60078001 26.84669814 -32.94204138 30.10574365 -43.375 33.3125 C-45.28549951 33.91101478 -47.19565708 34.51062213 -49.10546875 35.11132812 C-61.96989973 39.14243597 -74.81686609 43.14365432 -88 46 C-88.99 46.495 -88.99 46.495 -90 47 C-82.04122517 49.91577234 -74.43587535 50.70098401 -66 51 C-64.85144531 51.05285156 -63.70289063 51.10570312 -62.51953125 51.16015625 C-30.10556704 52.00255306 1.16002342 35.33974661 25.33984375 15.03515625 C28.62020514 12.35923765 30.42927896 11.09673238 34.6875 10.375 C38.69241311 11.13064398 40.39478005 11.84215764 43 15 C43.93952673 21.57668712 43.93952673 21.57668712 41.4296875 25.37890625 C38.39560024 28.65201324 35.11325868 31.30827596 31.5625 34 C30.82169189 34.56396484 30.08088379 35.12792969 29.31762695 35.70898438 C21.95375883 41.20766473 14.19939789 45.98294419 6.34375 50.73828125 C1.05133735 53.94478126 -4.13779217 57.29517487 -9.3125 60.6875 C-17.80246023 66.24445828 -26.37135174 71.66132517 -35 77 C2.88782992 73.93087411 33.4478156 55.29096368 59 28 C59.96263117 26.8658567 60.91577207 25.72352972 61.85546875 24.5703125 C64.52708233 21.36826926 65.17705936 21.09316309 69.3125 20.625 C73 21 73 21 75.9375 23.0625 C78.53602733 26.76343286 78.45298813 28.54641143 78 33 C76.3828125 35.73828125 76.3828125 35.73828125 74.125 38.3125 C72.89910156 39.71822266 72.89910156 39.71822266 71.6484375 41.15234375 C67.54920726 45.55992317 63.31942144 49.80930304 59 54 C56.33071608 56.652007 53.68235994 59.3225157 51.0546875 62.015625 C44.37782384 68.82967014 37.55527017 75.15009177 30 81 C29.42588379 81.44569336 28.85176758 81.89138672 28.26025391 82.35058594 C24.52021648 85.25142944 20.76558259 88.13241008 17 91 C41.84278344 89.09268457 69.34389206 76.82150416 86.4375 58.5 C89.67574286 54.66864739 92.19868264 50.57302923 94.578125 46.1640625 C96.1443591 43.78028863 97.57894967 42.49023875 100 41 C103.92721068 40.41509628 105.48108543 40.65405695 108.8125 42.875 C111.34667671 45.33677166 111.91229393 46.22076526 112.3046875 49.70703125 C111.92853356 53.77238728 110.36588923 56.39337898 108.125 59.6875 C107.71934814 60.2961792 107.31369629 60.9048584 106.89575195 61.53198242 C88.46662459 88.51736428 57.1041556 102.23653793 26 108.875 C19.96080544 109.90489292 14.06121719 110.27105953 7.9375 110.3125 C7.15181641 110.31813965 6.36613281 110.3237793 5.55664062 110.32958984 C-1.67568945 110.23817865 -7.57223727 109.10848257 -13 104 C-14.20272819 101.59454362 -14.10071472 100.05003047 -14.0625 97.375 C-14.05347656 96.55773437 -14.04445312 95.74046875 -14.03515625 94.8984375 C-14.01775391 93.95871094 -14.01775391 93.95871094 -14 93 C-14.82854492 93.13631836 -14.82854492 93.13631836 -15.67382812 93.27539062 C-49.42880727 98.72876339 -49.42880727 98.72876339 -61 93 C-64.13000891 90.45686776 -66.84436584 87.92915615 -68 84 C-67.88697266 77.89652383 -66.10379879 75.20389144 -62 71 C-61.34 70.67 -60.68 70.34 -60 70 C-61.19753906 69.97421875 -62.39507812 69.9484375 -63.62890625 69.921875 C-81.97336278 69.35743018 -101.71607308 65.88774178 -115 52 C-117.59039476 47.83284321 -117.61040024 42.79343722 -117 38 C-116.34 37.01 -115.68 36.02 -115 35 C-115.98871094 34.72929687 -116.97742188 34.45859375 -117.99609375 34.1796875 C-122.08859436 33.00804833 -126.07279256 31.60548135 -130.0625 30.125 C-130.74376953 29.88136719 -131.42503906 29.63773437 -132.12695312 29.38671875 C-136.54191542 27.74966261 -140.25895809 25.88311187 -144 23 C-144 22.34 -144 21.68 -144 21 C-123.81858088 12.72981015 -123.81858088 12.72981015 -112 16 C-78.63446346 22.60551598 -43.54741822 18.52009505 -13.4375 2.0625 C-9.00266445 -0.24300173 -4.93858157 -1.23715995 0 0 Z " fill="#BDC3C7" transform="translate(222,345)"/>
<path d="M0 0 C12.91079649 3.26455702 24.75384814 11.50548757 35.6171875 18.86328125 C65.05433308 38.74605337 94.32195892 54.00460987 129.5625 60.02734375 C130.82417999 60.2437854 132.08585999 60.46022705 133.38577271 60.68322754 C148.51887268 63.24552282 163.73875401 65.17095595 178.96289062 67.10449219 C200.49940073 69.85371525 221.61627246 73.17579163 242.1875 80.3125 C243.9509375 80.89741211 243.9509375 80.89741211 245.75 81.49414062 C254.17678953 84.35357907 254.17678953 84.35357907 255.3125 86.625 C254.06726563 86.4084375 252.82203125 86.191875 251.5390625 85.96875 C237.72786858 83.80473087 224.13882516 83.3149956 210.1875 83.3125 C209.31941711 83.30927734 208.45133423 83.30605469 207.5569458 83.30273438 C194.04122057 83.27215365 180.74866162 84.21605879 167.3125 85.625 C165.26872785 85.83595688 163.22494505 86.04681066 161.18115234 86.25756836 C156.94876924 86.69656565 152.71652288 87.13686597 148.484375 87.578125 C147.42669922 87.68833984 146.36902344 87.79855469 145.27929688 87.91210938 C143.12730849 88.13815309 140.97561422 88.36701394 138.82421875 88.59863281 C112.21654953 91.45405076 88.6307646 92.97070382 64.3125 80.625 C63.2292041 80.09229492 63.2292041 80.09229492 62.12402344 79.54882812 C32.59954919 65.01985434 6.9062825 44.26278341 -5.69140625 13.1953125 C-6.86721608 8.9808412 -7.08962344 5.97902622 -6.6875 1.625 C-3.6875 -0.375 -3.6875 -0.375 0 0 Z " fill="#BDC3C7" transform="translate(76.6875,159.375)"/>
<path d="M0 0 C4.25814795 0.86900979 5.99922839 2.56172839 9.0625 5.625 C9.0625 6.285 9.0625 6.945 9.0625 7.625 C18.72426622 6.80911752 27.73697024 5.90721549 36.875 2.4296875 C39.0625 1.625 39.0625 1.625 41.0625 1.625 C42.01151079 3.72455271 42.95969038 5.82447578 43.90698242 7.92480469 C44.72508555 9.73843879 45.54427482 11.55158331 46.36450195 13.36425781 C48.2918695 17.63594437 50.19963072 21.91071005 52.0078125 26.234375 C55.00256009 33.38083797 58.04273756 39.65965441 63.0625 45.625 C64.65905533 47.67887372 66.24120997 49.73962758 67.8125 51.8125 C68.94945312 53.28783203 68.94945312 53.28783203 70.109375 54.79296875 C73.19796295 59.27142128 74.36264902 62.81581916 74.4375 68.25 C74.46585938 69.19101563 74.49421875 70.13203125 74.5234375 71.1015625 C74.0625 73.625 74.0625 73.625 72.4765625 75.5234375 C68.9507386 77.1323086 66.79758281 76.53214788 63.0625 75.625 C60.56740252 74.57767513 58.25674062 73.50560982 55.875 72.25 C55.19719482 71.90275879 54.51938965 71.55551758 53.82104492 71.19775391 C47.24558075 67.79693303 40.78746425 64.17890941 34.32055664 60.57739258 C27.70582598 56.91630006 21.00521279 53.62759659 14.0625 50.625 C14.10890625 49.76519531 14.1553125 48.90539062 14.203125 48.01953125 C14.54832906 36.71409818 12.26265168 27.63789951 7.0625 17.625 C6.19238281 17.82029297 6.19238281 17.82029297 5.3046875 18.01953125 C-0.76154318 19.09063139 -0.76154318 19.09063139 -3.87109375 17.859375 C-6.18463504 16.1949568 -7.7075683 14.45308736 -8.4765625 11.68359375 C-8.76413655 7.69539574 -8.1641343 5.94495431 -5.8125 2.625 C-2.9375 0.625 -2.9375 0.625 0 0 Z " fill="#E37D25" transform="translate(437.9375,64.375)"/>
<path d="M0 0 C0.66 0 1.32 0 2 0 C15.21883244 28.59674085 15.21883244 28.59674085 10.4375 43.4375 C6.71965035 52.8306537 -1.05005404 64.79654304 -10 70 C-14.32546617 70.75462269 -17.73483693 70.74058326 -21.5625 68.5 C-23.5811868 64.98924034 -23.87220103 61.88730977 -23 58 C-20.78158206 54.76744815 -18.33369513 52.31701038 -15.5 49.625 C-4.85106743 38.4436208 -3.745589 22.79990504 -1.95068359 8.09912109 C-1.83934082 7.1911377 -1.72799805 6.2831543 -1.61328125 5.34765625 C-1.51829346 4.53304932 -1.42330566 3.71844238 -1.32543945 2.87915039 C-1 1 -1 1 0 0 Z " fill="#BDC3C7" transform="translate(428,319)"/>
<path d="M0 0 C4.25814795 0.86900979 5.99922839 2.56172839 9.0625 5.625 C9.0625 6.285 9.0625 6.945 9.0625 7.625 C18.72426622 6.80911752 27.73697024 5.90721549 36.875 2.4296875 C39.0625 1.625 39.0625 1.625 41.0625 1.625 C41.7225 3.935 42.3825 6.245 43.0625 8.625 C29.4292426 15.14436219 29.4292426 15.14436219 23.0625 16.625 C23.43741301 20.93649965 24.21835462 24.05009934 26.125 27.9375 C29.55675839 35.98223796 29.37581272 47.27285837 27.0625 55.625 C22.20286821 55.01754603 18.3219482 52.89741033 14.0625 50.625 C14.10890625 49.76519531 14.1553125 48.90539062 14.203125 48.01953125 C14.54832906 36.71409818 12.26265168 27.63789951 7.0625 17.625 C6.19238281 17.82029297 6.19238281 17.82029297 5.3046875 18.01953125 C-0.76154318 19.09063139 -0.76154318 19.09063139 -3.87109375 17.859375 C-6.18463504 16.1949568 -7.7075683 14.45308736 -8.4765625 11.68359375 C-8.76413655 7.69539574 -8.1641343 5.94495431 -5.8125 2.625 C-2.9375 0.625 -2.9375 0.625 0 0 Z " fill="#2F3139" transform="translate(437.9375,64.375)"/>
<path d="M0 0 C4.33915801 0.88554245 6.21997556 2.22783664 9.0625 5.625 C9.43020678 8.80622077 9.11016934 11.60091661 8.0625 14.625 C5.99972997 17.22124504 5.05276683 17.62793831 1.75 18.625 C-1.9375 18.625 -1.9375 18.625 -5.375 16.6875 C-8.20516542 13.30510719 -8.80518105 11.83745572 -8.45703125 7.5625 C-7.24152641 3.02948945 -4.4329602 0.94318302 0 0 Z " fill="#4B5461" transform="translate(437.9375,64.375)"/>
</svg>
